# xmcd
#
# Track frame offsets: 
#        150
#        11029
#        19883
#        24687
#        30466
#        38345
#        45549
#        57103
#        66932
#        84786
#        91202
#        97394
#        108648
#        117202
#        126131
#        134385
#        147514
#        154568
#        163722
#        171001
#        183979
#        194783
#        205287
#        212415
#        220144
#        229898
#
# Disc length: 3188 seconds
#
# Revision: 0
# Processed by: cddbd v1.4PL0 Copyright (c) Steve Scherf et al.
# Submitted via: ExactAudioCopy v0.90a11
#
DISCID=6c0c721a
DTITLE=Stefan Molota, spevaci s Telgartu - Pod Telgartom v tej doline
DYEAR=1900
DGENRE=
TTITLE0=Podmeze, len podme
TTITLE1=Buli sme na priadkach
TTITLE2=Kod ja s kudelou pujdem
TTITLE3=Ej ty hola, hola, ty Kralova hola
TTITLE4=Travnice
TTITLE5=Nieto takuo sumnuo diouca
TTITLE6=Ach, Boze moj, kobi bul mor
TTITLE7=Dobri vecier
TTITLE8=Sadiu suhaj tri jedlovo stromcoki
TTITLE9=Kot som ja mala bivala
TTITLE10=Pri novej vsi brechali psi
TTITLE11=Zasiau mi, moj miui pod horu len
TTITLE12=Pod tTelgartom, v tej doline
TTITLE13=Tam ponize mlina
TTITLE14=Spoza hori, spoza hori
TTITLE15=Nie do trna - Trnki, trnki
TTITLE16=Hej, dobre vinko pijat
TTITLE17=Kmotor sa nam smeje
TTITLE18=Kmotor, kmotor
TTITLE19=A kod sme pri sklenici
TTITLE20=Uastovika fcas rano steboce
TTITLE21=Zbohom, zbohom, kamarati roztomili
TTITLE22=Pada dist
TTITLE23=Pockajte, regruti
TTITLE24=Pada dist, pada dist, vera bude leja
TTITLE25=Pod oblockom
EXTD=
EXTT0=
EXTT1=
EXTT2=
EXTT3=
EXTT4=
EXTT5=
EXTT6=
EXTT7=
EXTT8=
EXTT9=
EXTT10=
EXTT11=
EXTT12=
EXTT13=
EXTT14=
EXTT15=
EXTT16=
EXTT17=
EXTT18=
EXTT19=
EXTT20=
EXTT21=
EXTT22=
EXTT23=
EXTT24=
EXTT25=
PLAYORDER=
